<svg width="13" height="14" viewBox="0 0 13 14" fill="none" xmlns="http://www.w3.org/2000/svg">
<g clip-path="url(#clip0)">
<path d="M12.6391 7.3611C12.64 6.63813 12.5128 5.92073 12.2636 5.2421C12.0974 7.18812 11.06 8.18768 9.97592 7.72221C8.96047 7.28599 9.64478 5.58551 9.69533 4.7741C9.78056 3.39862 9.691 1.82418 7.19247 0.515152C8.23067 2.50126 7.31272 3.73518 6.35 3.81029C5.28183 3.89371 4.30358 2.89235 4.6647 1.26735C3.49542 2.12896 3.46147 3.57918 3.82222 4.51735C4.1985 5.49524 3.80706 6.30774 2.88947 6.39801C1.86392 6.49912 1.29408 5.29987 1.8195 3.38887C0.876285 4.49727 0.359262 5.9057 0.361334 7.3611C0.361334 10.7516 3.10975 13.5 6.50022 13.5C9.8907 13.5 12.6391 10.7516 12.6391 7.3611Z" fill="#F4900C"/>
<path d="M10.2532 9.16637C10.3067 10.28 9.32842 10.7166 8.80192 10.5057C8.04142 10.2013 8.24545 9.67842 8.04973 8.59509C7.85401 7.51175 7.10181 6.75956 5.98851 6.42842C6.80101 8.71534 5.5382 9.55817 4.87628 9.70875C4.20028 9.86259 3.52103 9.70839 3.4434 8.26178C3.03815 8.664 2.71665 9.14255 2.49748 9.66977C2.27831 10.197 2.16582 10.7624 2.16651 11.3334C2.16651 11.4663 2.17481 11.597 2.18637 11.727C3.29498 12.8226 4.81778 13.5001 6.49984 13.5001C8.1819 13.5001 9.7047 12.8226 10.8133 11.727C10.8249 11.597 10.8332 11.4663 10.8332 11.3334C10.8332 10.5436 10.6223 9.80373 10.2532 9.16637Z" fill="#FFCC4D"/>
</g>
<defs>
<clipPath id="clip0">
<rect width="13" height="13" fill="white" transform="translate(0 0.5)"/>
</clipPath>
</defs>
</svg>
