<svg width="13" height="14" viewBox="0 0 13 14" fill="none" xmlns="http://www.w3.org/2000/svg">
<path d="M1.68279 3.20074C2.37901 3.48458 3.55804 3.8121 4.66195 4.12374C5.65862 4.40541 6.36893 4.77374 6.36893 5.66894C6.36893 6.07555 6.31981 7.3008 6.30212 8.7503C6.45018 8.71274 6.58776 8.69505 6.73401 8.70805L6.73365 8.65966C6.71993 7.0993 6.66901 5.75488 6.66937 5.32335C6.67045 4.4101 7.32551 4.52602 8.35468 4.24147C8.82304 4.11183 10.9662 3.63263 11.6801 3.48205C12.2789 3.35566 12.0456 3.09963 11.8585 2.89813C11.8463 2.93677 11.8055 2.97108 11.7202 2.99672C11.175 3.1603 7.85056 3.80416 7.04709 4.02913C6.48051 4.18766 5.75034 3.8966 4.8779 3.54199C4.00545 3.18774 1.79762 2.66955 1.3614 2.50597C1.284 2.47808 1.21371 2.43344 1.15556 2.37524C1.12162 2.39402 1.08695 2.41244 1.05518 2.43338C1.07901 2.4323 1.09851 2.42941 1.12379 2.42905C1.29604 2.42616 1.05337 2.94436 1.68279 3.20074Z" fill="#F5F8FA"/>
<path d="M0.364358 4.42601C0.399025 5.34793 0.492914 7.68684 0.407331 8.73804C0.350636 9.43246 0.493997 9.95173 0.766997 10.328C0.840664 10.2078 0.998108 10.1085 1.25811 10.0622C2.613 9.82065 4.82516 9.20098 5.71566 8.92979C5.95183 8.85793 6.13455 8.79329 6.30247 8.75068C6.32016 7.30118 6.36928 6.07593 6.36928 5.66932C6.36928 4.77412 5.65897 4.40579 4.6623 4.12412C3.55803 3.81212 2.379 3.48459 1.68278 3.20076C1.05336 2.94437 1.29603 2.42618 1.12378 2.4287C1.09886 2.42907 1.07936 2.43232 1.05516 2.43304C0.466914 2.82268 0.331858 3.57234 0.364358 4.42601Z" fill="#ADD3E0"/>
<path d="M11.9916 10.5389C12.1451 10.574 12.3043 10.6505 12.4495 10.7495C12.6077 10.4219 12.5726 9.99764 12.5488 9.5105C12.5058 8.63083 12.5701 5.86364 12.6348 4.59795C12.6882 3.54747 12.3379 3.05708 11.8522 2.82597C11.8582 2.83691 11.8619 2.84896 11.8631 2.86138C11.8643 2.8738 11.8629 2.88632 11.8591 2.8982C12.0458 3.0997 12.2791 3.35572 11.6807 3.48211C10.9664 3.6327 8.82359 4.11225 8.35523 4.24153C7.32606 4.52608 6.67101 4.41017 6.66992 5.32342C6.66956 5.75495 6.72048 7.09972 6.7342 8.65972L6.73456 8.70811C6.90428 8.72328 7.08845 8.77817 7.32606 8.89806C7.8197 9.14758 11.256 10.371 11.9916 10.5389Z" fill="#C1E1EA"/>
<path d="M4.87797 3.54202C5.75041 3.89627 6.48022 4.18769 7.04716 4.02916C7.85064 3.80455 11.175 3.16032 11.7203 2.99674C11.8059 2.9711 11.8467 2.9368 11.8586 2.89816C11.8223 2.86046 11.7879 2.82105 11.7553 2.78007C11.6852 2.75224 11.6135 2.72885 11.5405 2.71002C10.6182 2.47385 8.49413 1.80905 7.59316 1.4873C6.87925 1.23235 5.97286 1.27388 5.212 1.44432C4.367 1.63355 2.65497 2.06038 1.80094 2.17377C1.54455 2.20771 1.33294 2.27813 1.15527 2.37563C1.20511 2.42582 1.27083 2.47241 1.36111 2.50635C1.79769 2.66957 4.00552 3.18741 4.87797 3.54202Z" fill="#D2ECF3"/>
<path opacity="0.5" d="M6.73402 8.70805C6.5887 8.69725 6.44261 8.71154 6.30214 8.7503L6.29997 8.92833C6.28264 10.6313 6.37002 12.0498 6.34583 12.2798C6.32922 12.438 6.23208 12.5737 6.08691 12.6669C6.38339 12.703 6.6795 12.6987 6.96225 12.6517C6.79939 12.5127 6.70586 12.2914 6.68383 12.0711C6.66072 11.8346 6.74739 10.4259 6.73402 8.70805Z" fill="#CFE1EA"/>
<path d="M6.34577 12.2798C6.36996 12.0498 6.28221 10.6317 6.29991 8.92835L6.30207 8.75032C6.13416 8.79257 5.95143 8.85757 5.71527 8.92943C4.82477 9.20062 2.6126 9.82029 1.25771 10.0619C0.998074 10.1081 0.840268 10.2078 0.766602 10.3277C0.963132 10.5973 1.23282 10.8049 1.54371 10.926C2.29446 11.2265 3.98916 11.827 5.06202 12.3632C5.38702 12.5257 5.73657 12.6236 6.08685 12.6666C6.23238 12.5738 6.32916 12.438 6.34577 12.2798ZM11.5837 11.3337C12.0701 11.2142 12.3225 11.013 12.4496 10.7494C12.3045 10.6505 12.1452 10.5739 11.9917 10.5389C11.2562 10.371 7.81946 9.14754 7.32546 8.89801C7.08785 8.77812 6.90369 8.72287 6.73396 8.70807C6.74732 10.4262 6.66066 11.8346 6.68413 12.0711C6.70616 12.2917 6.79969 12.5127 6.96255 12.6518C7.14136 12.6233 7.31689 12.5771 7.48652 12.5138C8.2156 12.2347 10.4465 11.6125 11.5837 11.3337Z" fill="#9BC2D4"/>
<path d="M2.73395 7.24918C1.32164 8.44879 0.812116 10.7592 0.854005 9.7134C0.888672 8.84998 0.847866 6.28754 0.851838 5.22154C0.855088 4.32201 1.00206 3.54815 2.19698 4.1039C3.11348 4.53001 4.79698 4.86729 5.58564 5.40029C6.09517 5.74479 4.69587 5.58265 2.73395 7.24918Z" fill="#C1E1EA"/>
<path d="M10.8945 6.07525C11.8515 6.72273 12.1833 8.09278 12.1573 7.44061C12.1357 6.9022 12.1595 5.65709 12.1573 4.99264C12.1552 4.43184 12.2259 3.95481 11.4362 4.18195C10.7573 4.37695 9.58586 4.48781 9.09402 4.82003C8.77624 5.03453 9.60247 5.20136 10.8945 6.07525Z" fill="#D2ECF3"/>
</svg>
